<svg width="200" height="289" viewBox="0 0 400 389" fill="none" xmlns="http://www.w3.org/2000/svg">
<path d="M398 194.5C398 300.763 309.405 387 200 387C90.5947 387 2 300.763 2 194.5C2 88.2374 90.5947 2 200 2C309.405 2 398 88.2374 398 194.5Z" fill="url(#paint0_linear_316_23)" stroke="#F2F5F5" stroke-width="4"/>
<path d="M324.5 202.28C324.5 269.128 268.773 323.342 200 323.342C131.227 323.342 75.5 269.128 75.5 202.28C75.5 135.432 131.227 81.2175 200 81.2175C268.773 81.2175 324.5 135.432 324.5 202.28Z" fill="white" stroke="#1F2D47"/>
<path d="M199.526 105.03C215.128 105.03 229.974 108.56 243.296 114.876C245.385 115.806 247.487 116.921 249.57 118.036L240.436 126.026L226.741 112.092L203.146 132.525L189.251 117.847L145.861 155.932L173.641 185.844L162.796 195.13L190.203 225.041L179.357 234.323L218.561 276.867L241.765 256.059L261.946 278.358C257.946 281.332 253.569 284.31 248.817 286.906C233.816 295.198 216.909 299.545 199.717 299.53C144.715 299.53 100.001 255.882 100.001 202.197C99.8081 148.875 144.53 105.03 199.526 105.03ZM181.252 196.248L205.041 175.44L226.359 198.662L202.566 219.468L181.252 196.248ZM198.194 236.377L221.789 215.384L243.295 238.604L219.505 259.413L198.194 236.377ZM164.326 156.679L188.106 135.871L209.421 159.092L185.631 179.9L164.326 156.679ZM207.896 145.528L225.596 129.925L241.584 147.201L223.884 162.99L207.896 145.528ZM239.489 217.052L257.182 201.447L273.171 218.906L255.471 234.521L239.489 217.052ZM255.091 252.167L272.791 236.559L288.767 253.837L271.074 269.623L255.091 252.167ZM262.325 171.909L274.121 161.505L284.775 173.027L272.979 183.427L262.325 171.909ZM247.101 137.54L258.899 126.954L269.56 138.656L257.753 149.059L247.101 137.54ZM277.357 206.28L289.154 195.877L300.001 207.395L288.016 217.796L277.357 206.28ZM224.265 180.457L241.965 164.851L257.946 182.125L240.254 197.733L224.265 180.457Z" fill="black"/>
<path d="M312 202.28C312 262.311 261.935 311.118 200 311.118C138.065 311.118 88 262.311 88 202.28C88 142.249 138.065 93.4425 200 93.4425C261.935 93.4425 312 142.249 312 202.28Z" stroke="#1F2D47" stroke-width="6"/>
<path d="M46.0447 142.755L48.6009 130.703L55.6668 131.58L53.1105 143.632L46.0447 142.755ZM62.1352 144.108L60.1765 153.343L32.3894 149.896L37.1119 127.632L44.1777 128.508L41.414 141.538L62.1352 144.108Z" fill="white"/>
<path d="M71.8532 121.424L45.3616 112.358L50.1297 104.21L76.6213 113.276L71.8532 121.424Z" fill="white"/>
<path d="M96.948 93.5631C95.2582 95.1915 93.398 96.6259 91.3675 97.8666C89.337 99.1072 87.4481 99.9965 85.7009 100.535L82.0082 94.8559C83.6294 94.3319 85.2309 93.63 86.8125 92.7503C88.3906 91.8382 89.7365 90.8456 90.8502 89.7724C91.5031 89.1432 91.9664 88.6252 92.24 88.2183C92.5101 87.779 92.6403 87.4208 92.6307 87.1436C92.5984 86.8526 92.4454 86.624 92.1719 86.458C91.7387 86.1952 91.1951 86.182 90.5411 86.4184C89.8871 86.6548 89.1443 87.0484 88.3126 87.5992C87.4774 88.1176 86.5749 88.7008 85.6052 89.3488C84.6128 89.983 83.5537 90.5918 82.4281 91.1753C81.3216 91.7403 80.1702 92.1875 78.9738 92.5169C77.7966 92.8279 76.5846 92.9217 75.3379 92.7984C74.0683 92.6613 72.7952 92.2054 71.5185 91.4307C70.0367 90.5315 69.0373 89.3822 68.5203 87.9828C67.9997 86.5511 68.0659 84.9478 68.7189 83.1728C69.3912 81.3793 70.7642 79.4834 72.838 77.485C74.2013 76.1712 75.7165 74.9797 77.3834 73.9104C79.0503 72.8411 80.7651 72.0121 82.528 71.4232L86.3305 76.9424C84.7393 77.5449 83.325 78.2096 82.0878 78.9364C80.8697 79.6448 79.819 80.4245 78.9357 81.2757C78.2829 81.9048 77.8328 82.4459 77.5855 82.899C77.3383 83.3521 77.2422 83.7311 77.2974 84.036C77.3717 84.3223 77.5457 84.5485 77.8193 84.7145C78.2296 84.9636 78.7618 84.9699 79.4158 84.7335C80.0471 84.4832 80.7689 84.092 81.5813 83.5597C82.413 83.0089 83.3136 82.4095 84.2833 81.7615C85.2722 81.095 86.3198 80.4793 87.4263 79.9143C88.5327 79.3493 89.6745 78.9113 90.8518 78.6004C92.0482 78.2709 93.2697 78.1679 94.5165 78.2911C95.7632 78.4144 97.0136 78.8565 98.2674 79.6174C99.7265 80.5028 100.716 81.6613 101.237 83.093C101.754 84.4924 101.697 86.0864 101.067 87.8753C100.414 89.6502 99.041 91.5462 96.948 93.5631Z" fill="white"/>
<path d="M131.412 73.4867C129.437 74.5425 127.368 75.2671 125.207 75.6603C123.052 76.0213 120.91 76.0526 118.782 75.7543C116.677 75.4434 114.681 74.8108 112.794 73.8566C110.907 72.9023 109.234 71.6279 107.777 70.0335C106.32 68.4391 105.33 66.8003 104.806 65.1169C104.283 63.4336 104.192 61.7829 104.533 60.1647C104.898 58.534 105.682 57.0166 106.884 55.6123C108.091 54.1759 109.683 52.9297 111.658 51.8738C114.081 50.5791 116.545 49.7896 119.05 49.5052C121.58 49.2083 124.067 49.4022 126.514 50.0871L124.846 56.8233C123.416 56.4453 122.065 56.2885 120.793 56.3528C119.527 56.3848 118.341 56.6962 117.236 57.287C116.366 57.7521 115.686 58.2912 115.196 58.9045C114.707 59.5178 114.41 60.1891 114.306 60.9184C114.226 61.6351 114.342 62.3936 114.653 63.194C114.947 63.9747 115.453 64.7588 116.173 65.5461C116.893 66.3335 117.69 66.9765 118.566 67.4753C119.424 67.9543 120.307 68.2882 121.215 68.477C122.146 68.6532 123.072 68.6708 123.994 68.5299C124.915 68.389 125.811 68.0861 126.681 67.621C127.786 67.0302 128.585 66.2956 129.078 65.4172C129.576 64.5065 129.838 63.4725 129.866 62.3151L138.711 63.4327C138.694 65.4051 138.077 67.2583 136.861 68.9922C135.651 70.6938 133.834 72.192 131.412 73.4867Z" fill="white"/>
<path d="M152.672 66.5213L154.083 37.7469L163.114 35.6107L185.525 58.7498L176.027 60.9965L158.41 41.2739L161.991 40.4267L162.014 64.3114L152.672 66.5213ZM157.926 60.3215L157.712 53.4653L170.246 50.5004L175.131 56.2516L157.926 60.3215Z" fill="white"/>
<path d="M198.463 59.4371L198.822 31.4394L208.262 31.513L207.997 52.1913L220.636 52.2898L220.542 59.6092L198.463 59.4371Z" fill="white"/>
<path d="M239.724 60.7805L250.542 34.9548L259.711 37.2007L251.721 56.2749L263.998 59.2822L261.17 66.0338L239.724 60.7805Z" fill="white"/>
<path d="M304.815 82.0653L327.452 65.5861L334.811 71.498L318.092 83.669L327.947 91.5849L322.029 95.893L304.815 82.0653Z" fill="white"/>
<path d="M334.683 106.778L360.861 96.8402L366.001 104.758L346.667 112.098L353.55 122.7L346.706 125.297L334.683 106.778Z" fill="white"/>
<path d="M354.915 152.134C354.45 149.943 354.363 147.865 354.653 145.902C354.974 143.961 355.637 142.219 356.64 140.676C357.649 139.158 358.96 137.911 360.573 136.935C362.185 135.959 364.064 135.337 366.207 135.072C368.351 134.806 370.389 134.941 372.323 135.478C374.256 136.014 376.015 136.88 377.6 138.076C379.19 139.298 380.525 140.792 381.606 142.559C382.719 144.348 383.508 146.339 383.973 148.53C384.542 151.217 384.57 153.65 384.054 155.829C383.544 158.034 382.533 159.926 381.021 161.506L374.505 156.33C375.366 155.394 375.969 154.395 376.314 153.335C376.692 152.298 376.75 151.166 376.49 149.94C376.286 148.975 375.941 148.121 375.458 147.377C374.974 146.634 374.367 146.013 373.637 145.515C372.912 145.043 372.08 144.704 371.14 144.499C370.227 144.291 369.241 144.253 368.182 144.384C367.124 144.516 366.191 144.792 365.384 145.213C364.604 145.631 363.967 146.152 363.475 146.775C362.988 147.425 362.669 148.16 362.517 148.982C362.365 149.804 362.392 150.698 362.597 151.663C362.857 152.889 363.367 153.95 364.128 154.847C364.92 155.766 365.918 156.566 367.122 157.246L363.079 163.731C361.018 162.595 359.277 161.044 357.855 159.078C356.465 157.136 355.485 154.821 354.915 152.134Z" fill="white"/>
<path d="M181.891 348.239L182.09 347.266H192.461L193.949 347.114L194.336 351.251L193.281 351.485L192.145 348.883L186.344 348.356V354.801C187.273 354.653 188.488 354.559 189.988 354.52L190.738 352.516L191.629 352.786L191.406 358.059L190.504 357.872L189.965 356.02C188.598 356.036 187.391 355.958 186.344 355.786V361.645L189.438 362.29L189.051 363.485H181.809L182.008 362.477L184.094 361.833V348.86L181.891 348.239ZM203.02 363.895C201.621 363.895 200.391 363.583 199.328 362.958C198.273 362.333 197.453 361.438 196.867 360.274C196.281 359.11 195.988 357.739 195.988 356.161C195.988 354.481 196.262 352.946 196.809 351.555C197.355 350.157 198.148 349.055 199.188 348.251C199.82 347.766 200.5 347.415 201.227 347.196C201.953 346.969 202.766 346.856 203.664 346.856C204.055 346.856 204.453 346.883 204.859 346.938C205.266 346.993 205.723 347.071 206.23 347.172L207.73 346.962L208.176 351.251L207.051 351.52L205.949 349.083C205.441 348.864 204.961 348.704 204.508 348.602C204.062 348.501 203.535 348.45 202.926 348.45C202.355 348.45 201.809 348.54 201.285 348.719C200.77 348.891 200.363 349.106 200.066 349.364C199.551 349.825 199.129 350.551 198.801 351.544C198.48 352.536 198.32 353.762 198.32 355.223C198.32 356.114 198.441 356.993 198.684 357.86C198.934 358.719 199.285 359.446 199.738 360.04C200.254 360.712 200.844 361.208 201.508 361.528C202.172 361.848 202.875 362.008 203.617 362.008C203.992 362.008 204.496 361.922 205.129 361.751C205.762 361.571 206.379 361.372 206.98 361.153C207.582 360.934 208 360.766 208.234 360.649L208.762 361.458C207.871 362.309 206.988 362.93 206.113 363.321C205.246 363.704 204.215 363.895 203.02 363.895Z" fill="black"/>
<defs>
<linearGradient id="paint0_linear_316_23" x1="200" y1="389" x2="200" y2="0" gradientUnits="userSpaceOnUse">
<stop offset="0.465403" stop-color="white"/>
<stop offset="0.465503" stop-color="#1F2D47"/>
</linearGradient>
</defs>
</svg>
